#!OML:ASF I:\golf\golf\golf 2\Subject 1\2002-09-07\Subject1.ASF
:FULLY-SPECIFIED
:DEGREES
178
root 1.54526 17.9099 -7.75256 15.9196 8.36594 -3.32568
lowerback 5.71575 1.31039 -3.22216
upperback 5.61397 1.5816 4.67472
thorax 2.40066 0.601934 6.63414
lowerneck -15.8262 -1.32354 -0.439058
upperneck 38.9877 1.29 -7.25852
head 16.8797 -0.471485 -2.91673
rclavicle 7.95139e-016 1.59028e-015
rhumerus -16.7716 6.02209 -78.8606
rradius 32.3909
rwrist -11.8772
rhand -20.9729 10.5849
rfingers 7.12502
rthumb 5.40048 -19.3263
lclavicle 7.95139e-016 1.59028e-015
lhumerus -23.4857 -8.35162 91.2819
lradius 34.4926
lwrist 6.73018
lhand -9.45845 32.2096
lfingers 7.12502
lthumb 16.5051 61.5276
rfemur -43.2837 -0.196263 20.3084
rtibia 23.0719
rfoot -8.37808 -4.09366
rtoes -3.92479
lfemur -19.3366 -1.08725 -17.8475
ltibia 27.8692
lfoot -20.3107 -1.53772
ltoes -2.58284
179
root 1.52516 17.902 -7.70961 16.1865 8.71005 -3.01291
lowerback 5.96369 1.31295 -3.33596
upperback 5.71567 1.57698 4.67081
thorax 2.36805 0.594878 6.69262
lowerneck -15.7666 -1.3751 -0.418752
upperneck 38.8227 1.18495 -7.23349
head 16.7674 -0.503997 -2.91611
rclavicle -4.37326e-015 -1.82882e-014
rhumerus -16.4799 6.03896 -78.7069
rradius 32.5504
rwrist -11.8906
rhand -20.9634 10.6332
rfingers 7.12502
rthumb 5.40973 -19.2778
lclavicle -4.37326e-015 -1.82882e-014
lhumerus -23.5726 -8.69319 91.4019
lradius 35.1509
lwrist 7.00383
lhand -9.36285 32.733
lfingers 7.12502
lthumb 16.5971 62.0433
rfemur -43.4765 0.00497223 19.7741
rtibia 22.9946
rfoot -8.30754 -4.3048
rtoes -5.36644
lfemur -19.499 -1.07879 -18.0289
ltibia 27.8539
lfoot -20.4479 -1.98266
ltoes -2.63527
180
root 1.50432 17.892 -7.66432 16.4513 9.12219 -2.79555
lowerback 6.20617 1.35094 -3.23924
upperback 5.80713 1.62736 4.67326
thorax 2.32364 0.622933 6.63357
lowerneck -15.6771 -1.54507 -0.489632
upperneck 38.6821 0.917618 -7.1624
head 16.6512 -0.608825 -2.90761
rclavicle -1.55052e-014 -1.59028e-014
rhumerus -16.2799 6.0384 -78.5411
rradius 32.7739
rwrist -12.0842
rhand -21.0892 10.6993
rfingers 7.12502
rthumb 5.28818 -19.2147
lclavicle -1.55052e-014 -1.59028e-014
lhumerus -23.5981 -9.21696 91.5748
lradius 35.6862
lwrist 7.33179
lhand -9.27255 33.009
lfingers 7.12502
lthumb 16.6841 62.312
rfemur -43.6766 0.136552 19.3908
rtibia 22.9917
rfoot -8.29938 -4.40385
rtoes -6.74037
lfemur -19.6775 -1.04697 -18.0886
ltibia 27.852
lfoot -20.5819 -2.47281
ltoes -2.37892
181
root 1.4816 17.8822 -7.61909 16.7214 9.56187 -2.68577
lowerback 6.58578 1.42187 -2.97765
upperback 5.80847 1.72917 4.65642
thorax 2.10541 0.689261 6.45047
lowerneck -15.6187 -1.72556 -0.480978
upperneck 38.686 0.60397 -7.0524
head 16.6168 -0.716175 -2.91295
rclavicle -1.78906e-014 -1.90833e-014
rhumerus -16.2557 5.95771 -78.4469
rradius 33.0213
rwrist -12.243
rhand -21.324 10.7473
rfingers 7.12502
rthumb 5.06153 -19.1722
lclavicle -1.78906e-014 -1.90833e-014
lhumerus -23.7037 -9.66565 91.6652
lradius 36.1194
lwrist 7.572
lhand -9.13117 32.5077
lfingers 7.12502
lthumb 16.8202 61.7992
rfemur -43.8935 0.30616 19.1181
rtibia 23.0466
rfoot -8.27526 -4.35799
rtoes -6.42792
lfemur -19.8834 -1.01068 -18.0033
ltibia 27.8591
lfoot -20.7477 -2.97631
ltoes -2.22548
182
root 1.46146 17.8731 -7.57383 17.0233 10.0907 -2.47459
lowerback 6.99193 1.40848 -2.92039
upperback 5.82227 1.7109 4.75072
thorax 1.89633 0.685968 6.51003
lowerneck -15.5795 -1.85139 -0.560297
upperneck 38.6004 0.428418 -7.02365
head 16.5512 -0.7917 -2.90982
rclavicle -1.51076e-014 -1.11319e-014
rhumerus -16.0878 6.20011 -78.2129
rradius 33.1642
rwrist -12.3276
rhand -21.5569 10.8493
rfingers 7.12502
rthumb 4.83668 -19.0754
lclavicle -1.51076e-014 -1.11319e-014
lhumerus -23.7415 -9.7662 91.8811
lradius 36.5012
lwrist 7.73984
lhand -9.18732 31.8995
lfingers 7.12502
lthumb 16.7661 61.1956
rfemur -44.0851 0.395039 18.724
rtibia 23.1092
rfoot -8.21961 -4.42125
rtoes -6.21112
lfemur -20.138 -1.15723 -18.0054
ltibia 27.91
lfoot -20.9584 -3.36202
ltoes -2.53846
183
root 1.44093 17.8611 -7.5246 17.3518 10.6007 -2.23781
lowerback 7.01483 1.35355 -2.91828
upperback 6.07745 1.63353 4.88791
thorax 2.15941 0.632718 6.6656
lowerneck -15.6051 -1.9857 -0.80041
upperneck 38.2248 0.268523 -6.97367
head 16.3532 -0.882495 -2.85086
rclavicle 9.54166e-015 2.14687e-014
rhumerus -15.4819 6.33639 -77.8381
rradius 33.2838
rwrist -11.9352
rhand -21.387 10.5521
rfingers 7.12502
rthumb 5.0007 -19.3689
lclavicle 9.54166e-015 2.14687e-014
lhumerus -23.4199 -9.77671 92.1126
lradius 36.8634
lwrist 7.90332
lhand -9.42761 31.7076
lfingers 7.12502
lthumb 16.5348 61.0231
rfemur -44.2615 0.463575 18.3235
rtibia 23.1876
rfoot -8.08762 -4.51179
rtoes -6.13385
lfemur -20.4076 -1.42931 -18.0302
ltibia 27.9762
lfoot -21.1332 -3.51206
ltoes -2.64103
184
root 1.41749 17.8508 -7.47202 17.6671 11.0369 -2.12659
lowerback 7.27744 1.37743 -2.8648
upperback 6.18321 1.66429 5.05353
thorax 2.1187 0.646113 6.80686
lowerneck -15.5721 -2.13718 -0.940792
upperneck 37.9562 0.093861 -7.0204
head 16.1979 -0.976566 -2.85987
rclavicle 3.81667e-014 7.95139e-015
rhumerus -15.129 6.16116 -77.4356
rradius 33.4497
rwrist -11.1794
rhand -21.0486 10.1982
rfingers 7.12502
rthumb 5.32738 -19.7148
lclavicle 3.81667e-014 7.95139e-015
lhumerus -23.4305 -9.88936 92.3807
lradius 37.3605
lwrist 8.07884
lhand -9.60407 31.7781
lfingers 7.12502
lthumb 16.3649 61.1077
rfemur -44.4378 0.646523 18.0653
rtibia 23.3339
rfoot -8.00214 -4.50055
rtoes -5.39388
lfemur -20.6459 -1.53182 -17.9289
ltibia 28.0076
lfoot -21.2616 -3.75066
ltoes -2.29833
185
root 1.39307 17.8426 -7.41788 17.9371 11.5225 -1.9964
lowerback 7.61694 1.39491 -2.68561
upperback 6.31151 1.69318 5.13509
thorax 2.0636 0.664385 6.78444
lowerneck -15.6595 -2.28507 -0.937246
upperneck 37.8164 -0.102749 -7.08895
head 16.1363 -1.06377 -2.91812
rclavicle -3.4191e-014 2.22639e-014
rhumerus -14.7802 6.01613 -77.2112
rradius 33.5673
rwrist -11.0098
rhand -21.0853 10.3622
rfingers 7.12502
rthumb 5.29195 -19.5518
lclavicle -3.4191e-014 2.22639e-014
lhumerus -23.3786 -10.1875 92.532
lradius 37.8456
lwrist 8.30938
lhand -9.64172 31.8935
lfingers 7.12502
lthumb 16.3286 61.2261
rfemur -44.5754 0.696371 17.8781
rtibia 23.5684
rfoot -7.91271 -4.3716
rtoes -4.52847
lfemur -20.8127 -1.44921 -17.8442
ltibia 27.9954
lfoot -21.4218 -4.27909
ltoes -1.82884
186
root 1.36355 17.8318 -7.36229 18.2942 12.0648 -1.75604
lowerback 7.89083 1.31728 -2.62963
upperback 6.46304 1.59029 5.22302
thorax 2.08561 0.609751 6.85132
lowerneck -15.7764 -2.38074 -1.08748
upperneck 37.6439 -0.210686 -7.05737
head 16.0733 -1.12415 -2.8888
rclavicle -1.43125e-014 7.95139e-016
rhumerus -14.2429 6.2919 -77.0322
rradius 33.6319
rwrist -11.3189
rhand -21.2229 10.4837
rfingers 7.12502
rthumb 5.15911 -19.4335
lclavicle -1.43125e-014 7.95139e-016
lhumerus -23.2243 -10.1931 92.6433
lradius 38.2794
lwrist 8.50158
lhand -9.74656 31.9311
lfingers 7.12502
lthumb 16.2277 61.272
rfemur -44.8195 0.6794 17.6045
rtibia 23.8825
rfoot -7.66902 -4.36792
rtoes -3.60763
lfemur -21.0517 -1.36267 -17.8419
ltibia 27.9401
lfoot -21.5612 -4.87285
ltoes -1.58576
187
root 1.33151 17.8171 -7.3049 18.7476 12.6141 -1.43881
lowerback 8.11375 1.27346 -2.62631
upperback 6.56437 1.53127 5.26981
thorax 2.07699 0.578089 6.90185
lowerneck -15.7343 -2.52553 -1.14809
upperneck 37.3626 -0.432553 -7.02898
head 15.9082 -1.21682 -2.88597
rclavicle 1.74931e-014 -3.02153e-014
rhumerus -13.7945 6.32093 -76.8642
rradius 33.7313
rwrist -11.477
rhand -21.3253 10.3065
rfingers 7.12502
rthumb 5.06022 -19.6131
lclavicle 1.74931e-014 -3.02153e-014
lhumerus -23.1567 -10.3482 92.7474
lradius 38.6873
lwrist 8.76411
lhand -9.98916 31.7762
lfingers 7.12502
lthumb 15.9941 61.1359
rfemur -45.2032 0.652712 17.243
rtibia 24.2561
rfoot -7.38753 -4.4688
rtoes -2.51852
lfemur -21.2845 -1.53213 -17.8662
ltibia 27.8377
lfoot -21.6438 -5.25949
ltoes -1.59615
188
root 1.29854 17.8027 -7.25144 19.14 13.2115 -1.24677
lowerback 8.53971 1.26584 -2.41652
upperback 6.61555 1.53399 5.32005
thorax 1.89852 0.590035 6.82738
lowerneck -15.7363 -2.6739 -1.10002
upperneck 37.1532 -0.675613 -7.03379
head 15.7884 -1.3079 -2.92546
rclavicle -3.10104e-014 1.59028e-014
rhumerus -13.4921 6.16163 -76.7238
rradius 33.918
rwrist -11.527
rhand -21.3833 10.1011
rfingers 7.12502
rthumb 5.00428 -19.8198
lclavicle -3.10104e-014 1.59028e-014
lhumerus -23.1459 -10.6938 92.8495
lradius 39.1249
lwrist 9.05402
lhand -10.1258 31.6285
lfingers 7.12502
lthumb 15.8625 60.9988
rfemur -45.603 0.70187 16.9858
rtibia 24.645
rfoot -7.04508 -4.72551
rtoes -2.64824
lfemur -21.4332 -1.86661 -17.7042
ltibia 27.6815
lfoot -21.7645 -5.39204
ltoes -2.58389
